# File produced by Open Asset Import Library (http://www.assimp.sf.net)
# (assimp v5.2.3171981670)

mtllib Avatars_4_.mtl

# 50 vertex positions
v -2.142857142857143 0.0 6.428571428571428
v -2.142857142857143 9.428571428571429 6.428571428571428
v -2.142857142857143 9.428571428571429 -6.428571428571428
v -2.142857142857143 0.0 -6.428571428571428
v -1.2857142857142856 9.428571428571429 5.571428571428571
v -1.2857142857142856 10.285714285714285 5.571428571428571
v -1.2857142857142856 10.285714285714285 3.8571428571428568
v -1.2857142857142856 9.428571428571429 3.8571428571428568
v -1.2857142857142856 9.428571428571429 -3.8571428571428568
v -1.2857142857142856 10.285714285714285 -3.8571428571428568
v -1.2857142857142856 10.285714285714285 -5.571428571428571
v -1.2857142857142856 9.428571428571429 -5.571428571428571
v -0.42857142857142855 9.428571428571429 2.142857142857143
v -0.42857142857142855 12.0 2.142857142857143
v -0.42857142857142855 12.0 1.2857142857142856
v -0.42857142857142855 9.428571428571429 1.2857142857142856
v -0.42857142857142855 9.428571428571429 -1.2857142857142856
v -0.42857142857142855 12.0 -1.2857142857142856
v -0.42857142857142855 12.0 -2.142857142857143
v -0.42857142857142855 9.428571428571429 -2.142857142857143
v -0.42857142857142855 11.142857142857142 1.2857142857142856
v -0.42857142857142855 11.142857142857142 -1.2857142857142856
v 0.42857142857142855 10.285714285714285 5.571428571428571
v 0.42857142857142855 9.428571428571429 5.571428571428571
v 0.42857142857142855 10.285714285714285 3.8571428571428568
v 0.42857142857142855 9.428571428571429 3.8571428571428568
v 0.42857142857142855 12.0 2.142857142857143
v 0.42857142857142855 9.428571428571429 2.142857142857143
v 0.42857142857142855 12.0 1.2857142857142856
v 0.42857142857142855 9.428571428571429 1.2857142857142856
v 0.42857142857142855 12.0 -1.2857142857142856
v 0.42857142857142855 9.428571428571429 -1.2857142857142856
v 0.42857142857142855 12.0 -2.142857142857143
v 0.42857142857142855 9.428571428571429 -2.142857142857143
v 0.42857142857142855 10.285714285714285 -3.8571428571428568
v 0.42857142857142855 9.428571428571429 -3.8571428571428568
v 0.42857142857142855 10.285714285714285 -5.571428571428571
v 0.42857142857142855 9.428571428571429 -5.571428571428571
v 0.42857142857142855 11.142857142857142 1.2857142857142856
v 0.42857142857142855 11.142857142857142 -1.2857142857142856
v 2.142857142857143 9.428571428571429 6.428571428571428
v 2.142857142857143 0.0 6.428571428571428
v 2.142857142857143 9.428571428571429 -6.428571428571428
v 2.142857142857143 0.0 -6.428571428571428
v -2.142857142857143 9.428571428571429 5.571428571428571
v 2.142857142857143 9.428571428571429 5.571428571428571
v -1.2857142857142856 9.428571428571429 -6.428571428571428
v 0.42857142857142855 9.428571428571429 -6.428571428571428
v -1.2857142857142856 9.428571428571429 2.142857142857143
v -0.42857142857142855 9.428571428571429 -3.8571428571428568

# 140 UV coordinates
vt 0.5 0.984375 0
vt 0.5 0.8125 0
vt 0.734375 0.8125 0
vt 0.734375 0.984375 0
vt 0.421875 0.703125 0
vt 0.421875 0.6875 0
vt 0.453125 0.6875 0
vt 0.453125 0.703125 0
vt 0.359375 0.703125 0
vt 0.359375 0.6875 0
vt 0.390625 0.6875 0
vt 0.390625 0.703125 0
vt 0.28125 0.78125 0
vt 0.28125 0.734375 0
vt 0.296875 0.734375 0
vt 0.296875 0.78125 0
vt 0.328125 0.78125 0
vt 0.328125 0.734375 0
vt 0.34375 0.734375 0
vt 0.34375 0.78125 0
vt 0.015625 0.71875 0
vt 0.015625 0.703125 0
vt 0.0625 0.703125 0
vt 0.0625 0.71875 0
vt 0.296875 0.6875 0
vt 0.296875 0.703125 0
vt 0.328125 0.6875 0
vt 0.328125 0.703125 0
vt 0.375 0.734375 0
vt 0.375 0.78125 0
vt 0.390625 0.734375 0
vt 0.390625 0.78125 0
vt 0.234375 0.734375 0
vt 0.234375 0.78125 0
vt 0.25 0.734375 0
vt 0.25 0.78125 0
vt 0.75 0.71875 0
vt 0.75 0.734375 0
vt 0.78125 0.71875 0
vt 0.78125 0.734375 0
vt 0.515625 0.703125 0
vt 0.515625 0.71875 0
vt 0.5625 0.703125 0
vt 0.5625 0.71875 0
vt 0.234375 0.8125 0
vt 0.234375 0.984375 0
vt 0.46875 0.8125 0
vt 0.46875 0.984375 0
vt 0.8125 0.875 0
vt 0.8125 0.796875 0
vt 0.984375 0.796875 0
vt 0.984375 0.875 0
vt 0.703125 0.78125 0
vt 0.703125 0.75 0
vt 0.71875 0.75 0
vt 0.71875 0.78125 0
vt 0.953125 0.734375 0
vt 0.953125 0.765625 0
vt 0.96875 0.734375 0
vt 0.96875 0.765625 0
vt 0.59375 0.71875 0
vt 0.59375 0.703125 0
vt 0.640625 0.703125 0
vt 0.640625 0.71875 0
vt 0.234375 0.6875 0
vt 0.234375 0.703125 0
vt 0.265625 0.6875 0
vt 0.265625 0.703125 0
vt 0.8125 0.703125 0
vt 0.8125 0.6875 0
vt 0.84375 0.6875 0
vt 0.84375 0.703125 0
vt 0.671875 0.703125 0
vt 0.671875 0.71875 0
vt 0.71875 0.703125 0
vt 0.71875 0.71875 0
vt 0.90625 0.765625 0
vt 0.90625 0.734375 0
vt 0.921875 0.734375 0
vt 0.921875 0.765625 0
vt 0.8125 0.734375 0
vt 0.8125 0.765625 0
vt 0.828125 0.734375 0
vt 0.828125 0.765625 0
vt 0.8125 0.90625 0
vt 0.8125 0.984375 0
vt 0.984375 0.90625 0
vt 0.984375 0.984375 0
vt 0.015625 0.984375 0
vt 0.015625 0.75 0
vt 0.09375 0.75 0
vt 0.09375 0.984375 0
vt 0.125 0.71875 0
vt 0.125 0.734375 0
vt 0.203125 0.71875 0
vt 0.203125 0.734375 0
vt 0.1875 0.765625 0
vt 0.1875 0.984375 0
vt 0.203125 0.765625 0
vt 0.203125 0.984375 0
vt 0.125 0.765625 0
vt 0.125 0.984375 0
vt 0.15625 0.765625 0
vt 0.15625 0.984375 0
vt 0.578125 0.75 0
vt 0.578125 0.78125 0
vt 0.609375 0.75 0
vt 0.609375 0.78125 0
vt 0.765625 0.875 0
vt 0.765625 0.984375 0
vt 0.78125 0.875 0
vt 0.78125 0.984375 0
vt 0.421875 0.734375 0
vt 0.421875 0.78125 0
vt 0.4375 0.734375 0
vt 0.4375 0.78125 0
vt 0.859375 0.734375 0
vt 0.859375 0.765625 0
vt 0.875 0.734375 0
vt 0.875 0.765625 0
vt 0.875 0.6875 0
vt 0.875 0.703125 0
vt 0.90625 0.6875 0
vt 0.90625 0.703125 0
vt 0.515625 0.75 0
vt 0.515625 0.78125 0
vt 0.546875 0.75 0
vt 0.546875 0.78125 0
vt 0.640625 0.75 0
vt 0.640625 0.78125 0
vt 0.671875 0.75 0
vt 0.671875 0.78125 0
vt 0.46875 0.78125 0
vt 0.46875 0.734375 0
vt 0.484375 0.734375 0
vt 0.484375 0.78125 0
vt 0.765625 0.765625 0
vt 0.765625 0.84375 0
vt 0.78125 0.765625 0
vt 0.78125 0.84375 0

# 10 vertex normals
vn -0.99999994 0 0
vn -1 0 0
vn 1 0 0
vn 0.99999994 0 0
vn 0 0 0.99999994
vn 0 0 1
vn 0 0 -1
vn 0 0 -0.99999994
vn 0 -1 0
vn 0 1 0

# Mesh 'CA6BC4D0-CA67-4F1B-AF1A-B8CE5F89D792' with 70 faces
g CA6BC4D0-CA67-4F1B-AF1A-B8CE5F89D792
usemtl Material_3392F1CD-889B-4835-8617-657DCAF74FA2_1
f  1/1/1 2/2/1 3/3/1
f  3/3/1 4/4/1 1/1/1
f  5/5/2 6/6/2 7/7/2
f  7/7/2 8/8/2 5/5/2
f  9/9/2 10/10/2 11/11/2
f  11/11/2 12/12/2 9/9/2
f  13/13/2 14/14/2 15/15/2
f  15/15/2 16/16/2 13/13/2
f  17/17/2 18/18/2 19/19/2
f  19/19/2 20/20/2 17/17/2
f  21/21/2 15/22/2 18/23/2
f  18/23/2 22/24/2 21/21/2
f  23/25/3 24/26/3 25/27/3
f  26/28/3 25/27/3 24/26/3
f  27/29/3 28/30/3 29/31/3
f  30/32/3 29/31/3 28/30/3
f  31/33/3 32/34/3 33/35/3
f  34/36/3 33/35/3 32/34/3
f  35/37/3 36/38/3 37/39/3
f  38/40/3 37/39/3 36/38/3
f  29/41/3 39/42/3 31/43/3
f  40/44/3 31/43/3 39/42/3
f  41/45/4 42/46/4 43/47/4
f  44/48/4 43/47/4 42/46/4
f  1/49/5 42/50/5 41/51/5
f  41/51/5 2/52/5 1/49/5
f  5/53/6 24/54/6 23/55/6
f  23/55/6 6/56/6 5/53/6
f  26/57/7 8/58/7 25/59/7
f  7/60/7 25/59/7 8/58/7
f  13/61/6 28/62/6 27/63/6
f  27/63/6 14/64/6 13/61/6
f  30/65/7 16/66/7 39/67/7
f  21/68/7 39/67/7 16/66/7
f  17/69/6 32/70/6 40/71/6
f  40/71/6 22/72/6 17/69/6
f  34/73/7 20/74/7 33/75/7
f  19/76/7 33/75/7 20/74/7
f  9/77/6 36/78/6 35/79/6
f  35/79/6 10/80/6 9/77/6
f  38/81/7 12/82/7 37/83/7
f  11/84/7 37/83/7 12/82/7
f  44/85/8 4/86/8 43/87/8
f  3/88/8 43/87/8 4/86/8
f  1/89/9 4/90/9 44/91/9
f  44/91/9 42/92/9 1/89/9
f  45/93/10 2/94/10 46/95/10
f  41/96/10 46/95/10 2/94/10
f  3/97/10 45/98/10 47/99/10
f  5/100/10 47/99/10 45/98/10
f  48/101/10 24/102/10 43/103/10
f  46/104/10 43/103/10 24/102/10
f  49/105/10 8/106/10 28/107/10
f  26/108/10 28/107/10 8/106/10
f  9/109/10 49/110/10 50/111/10
f  13/112/10 50/111/10 49/110/10
f  17/113/10 16/114/10 32/115/10
f  30/116/10 32/115/10 16/114/10
f  50/117/10 20/118/10 36/119/10
f  34/120/10 36/119/10 20/118/10
f  47/121/10 12/122/10 48/123/10
f  38/124/10 48/123/10 12/122/10
f  7/125/10 6/126/10 25/127/10
f  23/128/10 25/127/10 6/126/10
f  11/129/10 10/130/10 37/131/10
f  35/132/10 37/131/10 10/130/10
f  21/133/9 22/134/9 40/135/9
f  40/135/9 39/136/9 21/133/9
f  19/137/10 14/138/10 33/139/10
f  27/140/10 33/139/10 14/138/10

